<?xml version="1.0" encoding="UTF-8" standalone="no"?>
<!DOCTYPE svg PUBLIC "-//W3C//DTD SVG 1.1//EN" "http://www.w3.org/Graphics/SVG/1.1/DTD/svg11.dtd">
<svg xmlns="http://www.w3.org/2000/svg" version="1.1" viewBox="0 0 675 94">
<path fill="rgb(252,238,204)" fill-opacity="1.000" d="M 0.00 0.00 Q 337.50 0.00 675.00 0.00 Q 675.00 44.78 675.00 89.56 Q 674.70 89.30 674.47 88.99 A 1.28 1.00 69.6 0 0 673.69 88.51 Q 658.06 86.94 642.50 84.75 Q 641.37 84.59 638.61 83.48 Q 638.51 83.44 637.73 83.25 Q 636.70 82.99 637.25 81.79 Q 644.16 80.84 651.00 79.50 Q 655.27 78.66 657.71 76.46 Q 658.48 75.77 659.31 74.16 Q 659.97 72.89 660.74 71.69 Q 662.27 69.29 662.63 67.92 Q 663.85 63.34 661.69 59.06 Q 659.36 54.46 655.41 49.36 Q 654.11 47.68 651.06 45.69 Q 641.90 39.71 638.65 38.22 Q 634.66 36.39 632.26 32.60 Q 630.51 29.83 633.02 27.74 Q 635.44 25.74 639.04 27.98 Q 642.71 30.27 645.67 32.25 A 2.79 2.77 -36.0 0 0 648.01 32.61 Q 655.71 30.35 661.15 26.44 Q 664.43 24.08 662.06 20.94 Q 659.20 17.15 654.61 12.39 Q 652.41 10.12 649.75 9.25 Q 644.73 7.62 639.30 7.16 Q 632.72 6.61 628.72 6.53 Q 622.19 6.40 615.93 8.53 Q 613.86 9.23 612.34 11.03 Q 610.09 13.70 607.94 16.47 Q 606.33 18.55 605.98 20.87 Q 604.87 28.32 607.23 35.71 A 3.47 3.41 -79.2 0 0 608.25 37.24 Q 613.44 41.68 618.65 45.19 Q 625.40 49.73 627.28 51.53 Q 631.01 55.08 634.25 59.75 Q 635.83 62.02 634.30 63.29 Q 633.25 64.16 631.54 63.84 Q 628.41 63.26 626.81 60.69 Q 624.61 57.16 623.04 55.43 A 1.35 1.31 -17.9 0 0 622.19 55.01 Q 613.93 54.23 606.09 59.23 Q 604.07 60.52 604.48 62.88 Q 605.23 67.23 607.77 71.53 Q 608.45 72.68 610.14 74.63 Q 611.43 76.12 612.54 77.75 L 610.73 78.34 A 1.76 1.75 -47.2 0 1 609.76 78.38 Q 608.11 77.98 606.43 77.72 Q 604.95 77.49 603.18 76.86 Q 600.36 75.85 597.36 75.74 Q 595.84 75.69 594.22 75.24 Q 592.64 74.80 591.00 74.71 Q 595.34 59.35 596.25 48.75 Q 597.98 28.73 596.00 8.74 A 0.78 0.77 -88.6 0 0 595.35 8.05 Q 589.16 7.07 582.82 7.23 Q 582.72 7.23 581.18 7.15 Q 579.35 7.06 578.43 8.27 Q 577.77 9.14 577.70 11.39 Q 577.15 30.82 576.80 50.25 Q 576.76 52.68 576.23 55.05 Q 574.53 62.72 566.52 61.79 Q 562.74 61.36 560.56 57.19 Q 557.21 50.77 556.94 45.99 Q 556.08 30.84 561.00 16.50 Q 562.38 12.49 561.13 9.27 A 1.37 1.25 4.3 0 0 560.49 8.59 Q 554.19 5.50 548.00 5.75 Q 545.30 5.86 542.47 7.78 A 1.44 1.34 83.3 0 0 541.91 8.54 Q 538.12 20.45 537.50 36.25 Q 536.82 53.53 538.54 65.50 Q 537.28 66.00 534.50 65.50 Q 527.41 64.23 514.31 63.81 Q 512.75 63.76 512.25 64.71 Q 514.04 43.77 514.00 37.25 Q 513.97 32.24 514.28 29.03 Q 514.50 26.77 515.68 25.90 Q 517.14 24.83 519.50 25.25 Q 521.02 25.52 528.50 26.00 Q 530.70 26.14 531.95 25.24 Q 532.94 24.52 533.32 22.40 Q 534.55 15.56 533.13 9.40 A 1.82 1.81 83.1 0 0 531.34 7.99 Q 518.93 8.13 507.45 7.81 Q 507.39 7.81 503.55 7.57 Q 500.15 7.37 495.75 7.75 Q 490.67 8.19 480.56 8.01 Q 480.47 8.01 478.95 7.91 Q 475.31 7.66 474.25 10.75 Q 473.06 14.20 473.19 21.06 Q 473.26 24.66 473.32 24.93 Q 473.89 27.58 477.50 26.99 Q 483.34 26.02 490.33 26.00 A 1.88 1.87 -4.2 0 1 492.20 27.61 Q 493.18 34.67 493.27 41.55 Q 493.39 49.80 493.39 49.95 Q 493.62 56.98 493.71 64.00 Q 490.65 64.48 487.69 63.95 Q 482.82 63.08 481.84 63.00 Q 477.22 62.66 472.63 61.96 Q 472.54 61.95 470.73 61.97 Q 469.03 62.00 469.46 59.50 Q 469.09 37.14 468.77 14.78 Q 468.76 14.72 468.88 12.73 Q 469.06 9.68 466.25 9.00 Q 460.20 7.54 454.08 7.99 Q 451.96 8.15 451.50 10.23 Q 449.59 19.06 451.00 28.00 Q 451.81 33.15 452.21 56.00 L 451.08 57.13 A 1.10 0.93 -60.9 0 1 450.26 57.44 Q 437.51 55.77 424.75 54.25 Q 421.70 53.89 417.71 52.50 Q 422.00 51.11 426.50 50.78 Q 437.65 49.98 442.75 40.25 Q 445.39 35.22 445.73 28.41 Q 445.95 24.24 444.30 20.87 Q 439.87 11.82 429.45 9.20 Q 424.06 7.84 416.50 7.50 Q 403.93 6.93 397.26 7.21 Q 393.73 7.36 393.00 10.50 Q 392.07 14.50 391.95 19.15 Q 391.74 26.91 391.68 27.84 Q 391.01 38.66 391.46 49.50 L 382.82 48.25 A 1.24 0.96 71.3 0 1 382.07 47.75 Q 381.65 47.13 381.15 47.49 Q 380.80 47.74 380.66 47.76 Q 380.18 47.83 380.21 47.25 Q 384.20 44.17 385.25 39.75 Q 386.16 35.93 386.82 29.51 Q 387.28 25.15 385.45 21.27 Q 381.79 13.48 374.79 10.01 Q 370.24 7.75 360.34 7.23 Q 350.44 6.71 340.52 7.14 Q 337.49 7.27 336.22 8.22 Q 334.21 9.70 334.25 12.75 Q 334.47 28.38 333.96 44.00 Q 333.59 44.55 333.80 45.49 A 0.62 0.59 84.3 0 1 333.21 46.25 L 327.55 46.06 A 0.60 0.57 -88.5 0 1 327.00 45.45 Q 327.01 44.76 326.54 45.25 Q 327.22 32.75 326.75 20.25 Q 326.55 14.80 325.19 11.56 Q 323.63 7.87 319.67 7.32 Q 318.05 7.10 315.32 7.15 Q 313.00 7.20 310.99 7.91 A 1.51 1.51 -9.9 0 0 309.99 9.33 L 310.21 43.00 Q 309.95 41.46 309.40 42.47 A 0.42 0.35 29.2 0 1 308.85 42.57 Q 308.53 42.39 308.09 42.61 Q 302.13 45.61 301.29 39.25 L 300.75 17.24 A 4.75 4.50 29.1 0 0 299.99 14.82 Q 298.74 12.90 297.71 16.19 Q 297.41 17.14 297.23 16.16 Q 296.97 14.67 296.27 13.24 Q 295.69 12.07 296.70 11.94 A 1.52 0.70 3.9 0 0 297.57 11.61 Q 298.71 10.50 297.56 9.38 A 1.38 1.14 -18.4 0 0 296.68 9.04 L 278.57 8.56 A 0.52 0.51 -88.9 0 0 278.05 9.07 L 278.00 23.77 Q 277.99 26.97 276.53 24.13 Q 272.99 17.27 266.98 11.51 Q 264.21 8.85 260.46 8.91 Q 258.09 8.95 258.04 8.95 Q 250.30 8.63 242.56 8.57 A 0.48 0.48 29.2 0 0 242.07 9.06 Q 242.31 27.86 242.26 46.66 Q 242.25 48.71 242.49 51.82 Q 242.69 54.40 242.71 57.00 Q 239.20 56.48 235.71 57.25 Q 233.86 50.93 232.44 49.31 Q 229.03 45.45 219.68 39.29 Q 219.64 39.26 216.65 37.41 Q 212.25 34.69 208.45 30.69 Q 206.89 29.04 208.82 27.84 Q 213.07 25.23 217.19 29.31 Q 219.31 31.42 222.25 30.01 Q 223.85 29.24 223.92 29.21 Q 229.12 27.08 234.31 24.63 A 1.20 1.20 -12.2 0 0 235.00 23.56 Q 235.12 16.76 229.06 13.44 Q 225.63 11.55 219.45 10.20 Q 219.37 10.18 217.54 10.07 Q 216.33 10.00 215.67 8.99 A 1.10 0.91 73.7 0 0 214.94 8.50 Q 206.63 7.60 199.02 10.06 Q 191.33 12.54 187.62 17.75 Q 183.31 23.80 184.37 32.23 Q 185.02 37.31 188.81 40.19 Q 192.16 42.73 196.56 44.92 Q 198.37 45.81 199.71 47.45 Q 202.32 50.63 205.55 53.20 Q 207.62 54.85 207.91 57.16 Q 208.19 59.47 206.41 60.96 Q 204.95 62.18 202.97 62.16 Q 201.47 62.14 200.07 60.83 Q 198.76 59.61 197.73 58.40 Q 196.36 56.81 194.27 57.00 Q 189.56 57.43 185.94 60.44 Q 183.62 62.37 184.71 65.75 Q 184.07 67.28 182.25 67.23 Q 179.73 67.15 178.21 69.00 Q 177.06 64.49 175.95 59.97 Q 174.95 55.86 173.26 54.21 Q 170.84 51.85 167.01 51.50 Q 164.80 51.30 166.79 50.32 Q 174.44 46.57 175.74 38.82 Q 176.06 36.88 176.12 31.16 Q 176.16 26.02 175.50 23.50 Q 174.70 20.45 171.31 17.44 Q 163.19 10.21 153.75 9.00 Q 150.35 8.56 132.75 9.25 Q 128.43 9.42 128.04 13.58 Q 127.93 14.70 127.68 15.38 Q 127.35 16.25 127.00 17.10 Q 126.83 17.52 126.87 18.06 Q 127.01 19.82 125.89 21.19 A 1.57 1.31 -29.1 0 0 125.55 22.07 Q 125.21 42.53 125.12 63.00 Q 125.10 67.19 124.50 73.75 Q 124.02 79.00 129.25 80.04 Q 130.19 80.80 127.97 80.72 A 1.55 1.48 28.5 0 0 127.08 80.96 Q 124.88 82.36 122.02 82.87 Q 100.35 86.81 79.06 92.48 Q 77.72 92.83 78.62 93.44 A 1.43 0.59 -15.8 0 0 79.54 93.55 Q 80.17 93.47 80.69 94.00 Q 40.34 94.00 0.00 94.00 Q 0.00 47.00 0.00 0.00 Z M 57.77 79.70 Q 59.10 80.60 60.50 80.75 Q 66.35 81.37 72.49 80.65 Q 74.49 80.42 74.92 78.44 L 77.06 68.60 A 1.99 1.95 -84.1 0 1 78.93 67.04 L 98.14 66.74 A 1.66 1.52 82.9 0 1 99.68 68.05 L 101.87 77.99 Q 102.25 79.69 104.07 79.78 Q 109.13 80.00 114.74 80.36 Q 121.23 80.77 120.73 74.25 Q 119.87 62.86 116.72 51.92 Q 116.03 49.54 115.32 45.85 Q 114.73 42.77 113.75 39.80 Q 111.52 33.07 110.96 30.90 Q 109.49 25.13 107.65 19.45 Q 105.82 13.77 101.15 10.03 A 3.42 2.88 60.1 0 0 99.11 9.29 L 81.56 9.53 A 0.80 0.75 -78.5 0 0 80.87 10.02 Q 78.53 15.66 75.92 21.18 Q 74.10 25.04 72.96 29.13 Q 70.78 36.96 70.68 37.26 Q 68.95 42.13 66.70 46.77 Q 64.51 51.30 63.52 54.93 Q 60.28 66.81 57.46 78.91 A 0.76 0.76 -66.5 0 0 57.77 79.70 Z M 40.31 10.19 Q 34.39 9.45 19.25 10.16 Q 13.86 10.42 14.00 15.75 Q 14.02 16.57 13.10 17.91 A 1.42 1.26 62.1 0 0 12.88 18.81 Q 13.01 20.13 12.53 21.33 Q 11.77 23.22 11.71 23.66 Q 11.50 25.20 11.50 27.50 Q 11.48 45.55 10.58 77.19 A 1.20 1.08 -68.5 0 0 10.90 78.05 Q 12.55 79.71 15.00 79.72 Q 20.00 79.75 25.82 79.75 Q 28.45 79.75 28.54 77.12 Q 28.80 69.25 29.44 60.26 Q 29.55 58.82 30.40 55.81 Q 30.92 53.95 32.86 54.00 Q 43.18 54.29 52.93 50.66 Q 60.98 47.65 61.81 39.01 Q 62.74 29.28 61.50 24.50 Q 60.72 21.50 57.31 18.44 Q 49.41 11.33 40.31 10.19 Z M 564.8031 59.8852 A 2.90 0.76 53.3 0 0 563.6793 57.1058 A 2.90 0.76 53.3 0 0 561.3369 55.2349 A 2.90 0.76 53.3 0 0 562.4606 58.0142 A 2.90 0.76 53.3 0 0 564.8031 59.8852 Z"/>
<path fill="rgb(50,34,18)" fill-opacity="1.000" d="M 591.00 74.71 Q 589.26 77.87 586.41 79.80 Q 584.79 80.91 582.16 80.96 Q 576.26 81.07 560.00 81.75 Q 546.26 82.33 540.26 69.46 Q 539.34 67.51 538.54 65.50 Q 536.82 53.53 537.50 36.25 Q 538.12 20.45 541.91 8.54 A 1.44 1.34 83.3 0 1 542.47 7.78 Q 545.30 5.86 548.00 5.75 Q 554.19 5.50 560.49 8.59 A 1.37 1.25 4.3 0 1 561.13 9.27 Q 562.38 12.49 561.00 16.50 Q 556.08 30.84 556.94 45.99 Q 557.21 50.77 560.56 57.19 Q 562.74 61.36 566.52 61.79 Q 574.53 62.72 576.23 55.05 Q 576.76 52.68 576.80 50.25 Q 577.15 30.82 577.70 11.39 Q 577.77 9.14 578.43 8.27 Q 579.35 7.06 581.18 7.15 Q 582.72 7.23 582.82 7.23 Q 589.16 7.07 595.35 8.05 A 0.78 0.77 -88.6 0 1 596.00 8.74 Q 597.98 28.73 596.25 48.75 Q 595.34 59.35 591.00 74.71 Z"/>
<path fill="rgb(50,34,18)" fill-opacity="1.000" d="M 637.25 81.79 Q 634.83 82.04 632.42 82.27 Q 629.76 82.53 627.58 82.24 Q 619.72 81.20 612.54 77.75 Q 611.43 76.12 610.14 74.63 Q 608.45 72.68 607.77 71.53 Q 605.23 67.23 604.48 62.88 Q 604.07 60.52 606.09 59.23 Q 613.93 54.23 622.19 55.01 A 1.35 1.31 -17.9 0 1 623.04 55.43 Q 624.61 57.16 626.81 60.69 Q 628.41 63.26 631.54 63.84 Q 633.25 64.16 634.30 63.29 Q 635.83 62.02 634.25 59.75 Q 631.01 55.08 627.28 51.53 Q 625.40 49.73 618.65 45.19 Q 613.44 41.68 608.25 37.24 A 3.47 3.41 -79.2 0 1 607.23 35.71 Q 604.87 28.32 605.98 20.87 Q 606.33 18.55 607.94 16.47 Q 610.09 13.70 612.34 11.03 Q 613.86 9.23 615.93 8.53 Q 622.19 6.40 628.72 6.53 Q 632.72 6.61 639.30 7.16 Q 644.73 7.62 649.75 9.25 Q 652.41 10.12 654.61 12.39 Q 659.20 17.15 662.06 20.94 Q 664.43 24.08 661.15 26.44 Q 655.71 30.35 648.01 32.61 A 2.79 2.77 -36.0 0 1 645.67 32.25 Q 642.71 30.27 639.04 27.98 Q 635.44 25.74 633.02 27.74 Q 630.51 29.83 632.26 32.60 Q 634.66 36.39 638.65 38.22 Q 641.90 39.71 651.06 45.69 Q 654.11 47.68 655.41 49.36 Q 659.36 54.46 661.69 59.06 Q 663.85 63.34 662.63 67.92 Q 662.27 69.29 660.74 71.69 Q 659.97 72.89 659.31 74.16 Q 658.48 75.77 657.71 76.46 Q 655.27 78.66 651.00 79.50 Q 644.16 80.84 637.25 81.79 Z"/>
<path fill="rgb(50,34,18)" fill-opacity="1.000" d="M 380.21 47.25 Q 376.91 49.64 374.75 49.75 Q 369.43 50.02 364.24 51.22 Q 360.45 52.09 357.00 52.07 A 1.18 1.18 -88.8 0 0 355.81 53.21 Q 355.56 62.41 354.99 71.50 Q 354.73 75.57 353.18 80.20 Q 352.62 81.89 350.83 81.93 Q 342.76 82.11 335.23 80.55 A 1.17 1.16 -86.4 0 1 334.31 79.50 Q 333.24 65.76 333.75 52.75 Q 334.04 45.35 333.96 44.00 Q 334.47 28.38 334.25 12.75 Q 334.21 9.70 336.22 8.22 Q 337.49 7.27 340.52 7.14 Q 350.44 6.71 360.34 7.23 Q 370.24 7.75 374.79 10.01 Q 381.79 13.48 385.45 21.27 Q 387.28 25.15 386.82 29.51 Q 386.16 35.93 385.25 39.75 Q 384.20 44.17 380.21 47.25 Z M 355.28 26.03 Q 354.96 27.50 354.96 28.75 Q 354.97 29.01 354.88 30.24 Q 354.76 32.02 356.61 32.23 Q 358.18 32.41 359.71 32.76 Q 362.84 33.47 365.24 32.07 Q 366.48 31.35 366.96 30.17 Q 367.58 28.68 366.84 27.38 Q 366.10 26.07 364.03 25.49 Q 360.28 24.43 355.94 25.37 A 0.87 0.87 -0.3 0 0 355.28 26.03 Z"/>
<path fill="rgb(50,34,18)" fill-opacity="1.000" d="M 417.71 52.50 Q 415.99 52.82 414.25 52.70 Q 412.43 52.59 412.65 54.26 A 1.75 1.20 63.5 0 1 412.52 55.19 Q 410.99 58.12 411.00 59.25 Q 411.12 69.35 410.69 79.45 Q 410.55 82.63 407.38 82.81 Q 403.26 83.05 398.26 82.62 Q 398.18 82.61 395.75 82.58 Q 392.26 82.53 392.20 79.08 Q 392.16 77.04 392.15 76.91 Q 391.38 68.47 391.96 60.00 Q 392.32 54.71 391.46 49.50 Q 391.01 38.66 391.68 27.84 Q 391.74 26.91 391.95 19.15 Q 392.07 14.50 393.00 10.50 Q 393.73 7.36 397.26 7.21 Q 403.93 6.93 416.50 7.50 Q 424.06 7.84 429.45 9.20 Q 439.87 11.82 444.30 20.87 Q 445.95 24.24 445.73 28.41 Q 445.39 35.22 442.75 40.25 Q 437.65 49.98 426.50 50.78 Q 422.00 51.11 417.71 52.50 Z M 412.93 25.88 L 413.25 32.20 A 0.65 0.59 3.6 0 0 413.80 32.77 Q 415.50 33.00 417.18 32.67 Q 417.26 32.66 419.99 32.34 Q 422.27 32.07 423.44 29.69 Q 424.49 27.55 423.22 26.43 Q 422.48 25.78 420.61 25.76 Q 417.25 25.73 413.74 25.21 A 0.71 0.65 3.0 0 0 412.93 25.88 Z"/>
<path fill="rgb(50,34,18)" fill-opacity="1.000" d="M 326.54 45.25 Q 325.69 53.49 325.06 61.75 Q 324.24 72.43 320.61 82.48 A 0.61 0.60 14.4 0 1 319.94 82.87 L 311.24 81.40 A 1.54 1.49 -85.2 0 1 310.00 79.88 L 310.21 43.00 L 309.99 9.33 A 1.51 1.51 -9.9 0 1 310.99 7.91 Q 313.00 7.20 315.32 7.15 Q 318.05 7.10 319.67 7.32 Q 323.63 7.87 325.19 11.56 Q 326.55 14.80 326.75 20.25 Q 327.22 32.75 326.54 45.25 Z"/>
<path fill="rgb(50,34,18)" fill-opacity="1.000" d="M 512.25 64.71 Q 511.63 70.71 511.69 76.75 Q 511.72 79.54 509.87 81.41 A 1.51 1.35 17.7 0 1 509.00 81.80 Q 502.30 82.38 494.64 81.06 Q 492.87 80.76 492.96 78.95 L 493.71 64.00 Q 493.62 56.98 493.39 49.95 Q 493.39 49.80 493.27 41.55 Q 493.18 34.67 492.20 27.61 A 1.88 1.87 -4.2 0 0 490.33 26.00 Q 483.34 26.02 477.50 26.99 Q 473.89 27.58 473.32 24.93 Q 473.26 24.66 473.19 21.06 Q 473.06 14.20 474.25 10.75 Q 475.31 7.66 478.95 7.91 Q 480.47 8.01 480.56 8.01 Q 490.67 8.19 495.75 7.75 Q 500.15 7.37 503.55 7.57 Q 507.39 7.81 507.45 7.81 Q 518.93 8.13 531.34 7.99 A 1.82 1.81 83.1 0 1 533.13 9.40 Q 534.55 15.56 533.32 22.40 Q 532.94 24.52 531.95 25.24 Q 530.70 26.14 528.50 26.00 Q 521.02 25.52 519.50 25.25 Q 517.14 24.83 515.68 25.90 Q 514.50 26.77 514.28 29.03 Q 513.97 32.24 514.00 37.25 Q 514.04 43.77 512.25 64.71 Z"/>
<path fill="rgb(50,34,18)" fill-opacity="1.000" d="M 469.46 59.50 L 468.75 78.76 A 2.05 2.03 -10.6 0 1 467.51 80.55 Q 463.09 82.47 457.07 81.46 A 2.30 2.30 88.9 0 1 455.20 79.66 Q 452.82 68.22 452.21 56.00 Q 451.81 33.15 451.00 28.00 Q 449.59 19.06 451.50 10.23 Q 451.96 8.15 454.08 7.99 Q 460.20 7.54 466.25 9.00 Q 469.06 9.68 468.88 12.73 Q 468.76 14.72 468.77 14.78 Q 469.09 37.14 469.46 59.50 Z"/>
<path fill="rgb(48,33,16)" fill-opacity="1.000" d="M 235.71 57.25 Q 236.67 69.49 227.06 75.31 Q 220.34 79.38 211.88 79.68 Q 207.46 79.83 201.29 78.13 Q 194.09 76.13 191.06 74.69 Q 186.03 72.29 184.71 65.75 Q 183.62 62.37 185.94 60.44 Q 189.56 57.43 194.27 57.00 Q 196.36 56.81 197.73 58.40 Q 198.76 59.61 200.07 60.83 Q 201.47 62.14 202.97 62.16 Q 204.95 62.18 206.41 60.96 Q 208.19 59.47 207.91 57.16 Q 207.62 54.85 205.55 53.20 Q 202.32 50.63 199.71 47.45 Q 198.37 45.81 196.56 44.92 Q 192.16 42.73 188.81 40.19 Q 185.02 37.31 184.37 32.23 Q 183.31 23.80 187.62 17.75 Q 191.33 12.54 199.02 10.06 Q 206.63 7.60 214.94 8.50 A 1.10 0.91 73.7 0 1 215.67 8.99 Q 216.33 10.00 217.54 10.07 Q 219.37 10.18 219.45 10.20 Q 225.63 11.55 229.06 13.44 Q 235.12 16.76 235.00 23.56 A 1.20 1.20 -12.2 0 1 234.31 24.63 Q 229.12 27.08 223.92 29.21 Q 223.85 29.24 222.25 30.01 Q 219.31 31.42 217.19 29.31 Q 213.07 25.23 208.82 27.84 Q 206.89 29.04 208.45 30.69 Q 212.25 34.69 216.65 37.41 Q 219.64 39.26 219.68 39.29 Q 229.03 45.45 232.44 49.31 Q 233.86 50.93 235.71 57.25 Z"/>
<path fill="rgb(50,34,18)" fill-opacity="1.000" d="M 301.29 39.25 Q 301.36 47.88 301.14 56.50 Q 300.86 67.85 296.52 78.41 Q 295.24 81.53 291.86 81.48 Q 286.08 81.40 279.05 79.88 A 1.40 1.39 -81.2 0 1 277.96 78.38 Q 278.52 72.88 279.07 67.76 Q 279.55 63.33 277.57 59.44 Q 273.60 51.65 268.25 44.75 Q 266.34 42.29 264.04 41.47 A 0.36 0.36 -79.9 0 0 263.56 41.81 Q 263.30 60.31 261.75 78.76 A 1.92 1.90 -90.0 0 1 260.02 80.50 Q 253.13 81.11 244.78 80.37 A 1.67 1.62 1.8 0 1 243.26 78.80 L 242.71 57.00 Q 242.69 54.40 242.49 51.82 Q 242.25 48.71 242.26 46.66 Q 242.31 27.86 242.07 9.06 A 0.48 0.48 31.9 0 1 242.56 8.57 Q 250.30 8.63 258.04 8.95 Q 258.09 8.95 260.46 8.91 Q 264.21 8.85 266.98 11.51 Q 272.99 17.27 276.53 24.13 Q 277.99 26.97 278.00 23.77 L 278.05 9.07 A 0.52 0.51 -88.9 0 1 278.57 8.56 L 296.68 9.04 A 1.38 1.14 -18.4 0 1 297.56 9.38 Q 298.71 10.50 297.57 11.61 A 1.52 0.70 3.9 0 1 296.70 11.94 Q 295.69 12.07 296.27 13.24 Q 296.97 14.67 297.23 16.16 Q 297.41 17.14 297.71 16.19 Q 298.74 12.90 299.99 14.82 A 4.75 4.50 29.1 0 1 300.75 17.24 L 301.29 39.25 Z"/>
<path fill="rgb(48,33,16)" fill-opacity="1.000" d="M 178.21 69.00 L 178.84 71.95 A 1.51 1.07 61.3 0 1 178.73 72.89 L 175.47 78.78 A 1.45 1.10 0.3 0 1 174.71 79.35 Q 168.28 81.44 162.38 78.30 A 1.93 1.20 77.2 0 1 161.70 77.61 L 155.25 66.77 A 4.69 3.46 3.9 0 0 153.32 65.13 Q 147.47 62.44 143.26 64.57 A 0.90 0.79 -15.2 0 0 142.77 65.31 L 142.78 77.44 Q 142.78 79.74 140.72 79.78 L 129.25 80.04 Q 124.02 79.00 124.50 73.75 Q 125.10 67.19 125.12 63.00 Q 125.21 42.53 125.55 22.07 A 1.57 1.31 -29.1 0 1 125.89 21.19 Q 127.01 19.82 126.87 18.06 Q 126.83 17.52 127.00 17.10 Q 127.35 16.25 127.68 15.38 Q 127.93 14.70 128.04 13.58 Q 128.43 9.42 132.75 9.25 Q 150.35 8.56 153.75 9.00 Q 163.19 10.21 171.31 17.44 Q 174.70 20.45 175.50 23.50 Q 176.16 26.02 176.12 31.16 Q 176.06 36.88 175.74 38.82 Q 174.44 46.57 166.79 50.32 Q 164.80 51.30 167.01 51.50 Q 170.84 51.85 173.26 54.21 Q 174.95 55.86 175.95 59.97 Q 177.06 64.49 178.21 69.00 Z M 148.17 35.39 Q 152.60 36.07 156.84 34.72 A 1.13 1.13 -86.3 0 0 157.53 34.11 Q 159.03 30.74 156.84 29.03 Q 155.53 28.00 152.39 28.00 Q 149.09 28.00 145.52 28.00 A 0.97 0.95 0.3 0 0 144.55 28.94 L 144.50 34.75 A 0.54 0.53 -1.0 0 0 145.06 35.28 Q 146.97 35.20 148.17 35.39 Z M 132.43 72.97 Q 135.67 74.23 139.19 73.98 A 0.62 0.61 1.1 0 0 139.76 73.44 Q 140.20 70.17 139.11 67.04 A 0.63 0.62 -12.5 0 0 138.44 66.62 Q 135.79 66.93 133.15 67.30 Q 131.31 67.56 130.42 67.96 Q 127.83 69.12 129.73 71.22 Q 130.72 72.31 132.43 72.97 Z"/>
<path fill="rgb(48,33,16)" fill-opacity="1.000" d="M 57.77 79.70 A 0.76 0.76 -66.5 0 1 57.46 78.91 Q 60.28 66.81 63.52 54.93 Q 64.51 51.30 66.70 46.77 Q 68.95 42.13 70.68 37.26 Q 70.78 36.96 72.96 29.13 Q 74.10 25.04 75.92 21.18 Q 78.53 15.66 80.87 10.02 A 0.80 0.75 -78.5 0 1 81.56 9.53 L 99.11 9.29 A 3.42 2.88 60.1 0 1 101.15 10.03 Q 105.82 13.77 107.65 19.45 Q 109.49 25.13 110.96 30.90 Q 111.52 33.07 113.75 39.80 Q 114.73 42.77 115.32 45.85 Q 116.03 49.54 116.72 51.92 Q 119.87 62.86 120.73 74.25 Q 121.23 80.77 114.74 80.36 Q 109.13 80.00 104.07 79.78 Q 102.25 79.69 101.87 77.99 L 99.68 68.05 A 1.66 1.52 82.9 0 0 98.14 66.74 L 78.93 67.04 A 1.99 1.95 -84.1 0 0 77.06 68.60 L 74.92 78.44 Q 74.49 80.42 72.49 80.65 Q 66.35 81.37 60.50 80.75 Q 59.10 80.60 57.77 79.70 Z M 89.12 33.99 Q 86.60 45.12 81.79 55.87 A 0.77 0.75 -77.9 0 0 82.47 56.96 L 95.93 56.73 A 0.40 0.38 79.9 0 0 96.28 56.21 Q 92.63 45.25 90.00 33.99 Q 89.55 32.08 89.12 33.99 Z"/>
<path fill="rgb(48,33,16)" fill-opacity="1.000" d="M 40.31 10.19 Q 49.41 11.33 57.31 18.44 Q 60.72 21.50 61.50 24.50 Q 62.74 29.28 61.81 39.01 Q 60.98 47.65 52.93 50.66 Q 43.18 54.29 32.86 54.00 Q 30.92 53.95 30.40 55.81 Q 29.55 58.82 29.44 60.26 Q 28.80 69.25 28.54 77.12 Q 28.45 79.75 25.82 79.75 Q 20.00 79.75 15.00 79.72 Q 12.55 79.71 10.90 78.05 A 1.20 1.08 -68.5 0 1 10.58 77.19 Q 11.48 45.55 11.50 27.50 Q 11.50 25.20 11.71 23.66 Q 11.77 23.22 12.53 21.33 Q 13.01 20.13 12.88 18.81 A 1.42 1.26 62.1 0 1 13.10 17.91 Q 14.02 16.57 14.00 15.75 Q 13.86 10.42 19.25 10.16 Q 34.39 9.45 40.31 10.19 Z M 42.15 30.00 L 31.57 29.00 A 1.06 0.98 -87.5 0 0 30.50 30.06 L 30.50 35.74 A 0.49 0.49 1.2 0 0 30.97 36.23 Q 35.00 36.39 38.67 36.15 Q 42.28 35.91 42.31 35.90 Q 44.59 35.27 43.86 31.67 A 2.13 1.88 85.8 0 0 42.15 30.00 Z M 26.04 74.71 L 24.58 71.11 Q 24.32 70.47 24.30 70.19 Q 24.13 67.68 21.84 68.04 Q 20.26 68.30 20.12 68.31 Q 18.21 68.44 16.31 68.73 A 1.03 0.98 8.3 0 0 15.56 69.26 Q 14.68 71.00 15.54 72.42 Q 16.15 73.43 17.91 73.81 Q 21.63 74.59 25.55 75.23 Q 26.30 75.35 26.04 74.71 Z"/>
<path fill="rgb(252,238,204)" fill-opacity="1.000" d="M 355.28 26.03 A 0.87 0.87 0.5 0 1 355.94 25.37 Q 360.28 24.43 364.03 25.49 Q 366.10 26.07 366.84 27.38 Q 367.58 28.68 366.96 30.17 Q 366.48 31.35 365.24 32.07 Q 362.84 33.47 359.71 32.76 Q 358.18 32.41 356.61 32.23 Q 354.76 32.02 354.88 30.24 Q 354.97 29.01 354.96 28.75 Q 354.96 27.50 355.28 26.03 Z M 356.18 29.45 A 0.89 0.89 -61.9 0 0 356.58 30.78 Q 357.65 31.22 358.81 31.56 Q 359.59 31.79 360.20 31.64 Q 361.70 31.28 360.55 30.12 Q 360.05 29.62 359.69 29.15 Q 357.93 26.88 356.18 29.45 Z"/>
<path fill="rgb(252,238,204)" fill-opacity="1.000" d="M 412.93 25.88 A 0.71 0.65 3.0 0 1 413.74 25.21 Q 417.25 25.73 420.61 25.76 Q 422.48 25.78 423.22 26.43 Q 424.49 27.55 423.44 29.69 Q 422.27 32.07 419.99 32.34 Q 417.26 32.66 417.18 32.67 Q 415.50 33.00 413.80 32.77 A 0.65 0.59 3.6 0 1 413.25 32.20 L 412.93 25.88 Z"/>
<path fill="rgb(252,238,204)" fill-opacity="1.000" d="M 148.17 35.39 Q 146.97 35.20 145.06 35.28 A 0.54 0.53 -1.0 0 1 144.50 34.75 L 144.55 28.94 A 0.97 0.95 0.3 0 1 145.52 28.00 Q 149.09 28.00 152.39 28.00 Q 155.53 28.00 156.84 29.03 Q 159.03 30.74 157.53 34.11 A 1.13 1.13 -86.3 0 1 156.84 34.72 Q 152.60 36.07 148.17 35.39 Z M 152.74 33.40 Q 153.91 33.91 155.19 33.77 A 0.82 0.80 -84.2 0 0 155.86 33.21 Q 157.10 29.48 153.19 29.31 Q 149.76 29.16 151.06 31.78 Q 151.64 32.93 152.74 33.40 Z"/>
<path fill="rgb(50,34,18)" fill-opacity="1.000" d="M 356.18 29.45 Q 357.93 26.88 359.69 29.15 Q 360.05 29.62 360.55 30.12 Q 361.70 31.28 360.20 31.64 Q 359.59 31.79 358.81 31.56 Q 357.65 31.22 356.58 30.78 A 0.89 0.89 -61.9 0 1 356.18 29.45 Z"/>
<path fill="rgb(252,238,204)" fill-opacity="1.000" d="M 42.15 30.00 A 2.13 1.88 85.8 0 1 43.86 31.67 Q 44.59 35.27 42.31 35.90 Q 42.28 35.91 38.67 36.15 Q 35.00 36.39 30.97 36.23 A 0.49 0.49 1.2 0 1 30.50 35.74 L 30.50 30.06 A 1.06 0.98 -87.5 0 1 31.57 29.00 L 42.15 30.00 Z"/>
<path fill="rgb(48,33,16)" fill-opacity="1.000" d="M 151.06 31.78 Q 149.76 29.16 153.19 29.31 Q 157.10 29.48 155.86 33.21 A 0.82 0.80 -84.2 0 1 155.19 33.77 Q 153.91 33.91 152.74 33.40 Q 151.64 32.93 151.06 31.78 Z"/>
<path fill="rgb(252,238,204)" fill-opacity="1.000" d="M 89.12 33.99 Q 89.55 32.08 90.00 33.99 Q 92.63 45.25 96.28 56.21 A 0.40 0.38 79.9 0 1 95.93 56.73 L 82.47 56.96 A 0.77 0.75 -77.9 0 1 81.79 55.87 Q 86.60 45.12 89.12 33.99 Z"/>
<path fill="rgb(252,234,193)" fill-opacity="1.000" d="M 301.29 39.25 Q 302.13 45.61 308.09 42.61 Q 308.53 42.39 308.85 42.57 A 0.42 0.35 29.2 0 0 309.40 42.47 Q 309.95 41.46 310.21 43.00 L 310.00 79.88 A 1.54 1.49 -85.2 0 0 311.24 81.40 L 319.94 82.87 A 0.61 0.60 14.4 0 0 320.61 82.48 Q 324.24 72.43 325.06 61.75 Q 325.69 53.49 326.54 45.25 Q 327.01 44.76 327.00 45.45 A 0.60 0.57 -88.5 0 0 327.55 46.06 L 333.21 46.25 A 0.62 0.59 84.3 0 0 333.80 45.49 Q 333.59 44.55 333.96 44.00 Q 334.04 45.35 333.75 52.75 Q 333.24 65.76 334.31 79.50 A 1.17 1.16 -86.4 0 0 335.23 80.55 Q 342.76 82.11 350.83 81.93 Q 352.62 81.89 353.18 80.20 Q 354.73 75.57 354.99 71.50 Q 355.56 62.41 355.81 53.21 A 1.18 1.18 -88.8 0 1 357.00 52.07 Q 360.45 52.09 364.24 51.22 Q 369.43 50.02 374.75 49.75 Q 376.91 49.64 380.21 47.25 Q 380.18 47.83 380.66 47.76 Q 380.80 47.74 381.15 47.49 Q 381.65 47.13 382.07 47.75 A 1.24 0.96 71.3 0 0 382.82 48.25 L 391.46 49.50 Q 392.32 54.71 391.96 60.00 Q 391.38 68.47 392.15 76.91 Q 392.16 77.04 392.20 79.08 Q 392.26 82.53 395.75 82.58 Q 398.18 82.61 398.26 82.62 Q 403.26 83.05 407.38 82.81 Q 410.55 82.63 410.69 79.45 Q 411.12 69.35 411.00 59.25 Q 410.99 58.12 412.52 55.19 A 1.75 1.20 63.5 0 0 412.65 54.26 Q 412.43 52.59 414.25 52.70 Q 415.99 52.82 417.71 52.50 Q 421.70 53.89 424.75 54.25 Q 437.51 55.77 450.26 57.44 A 1.10 0.93 -60.9 0 0 451.08 57.13 L 452.21 56.00 Q 452.82 68.22 455.20 79.66 A 2.30 2.30 88.9 0 0 457.07 81.46 Q 463.09 82.47 467.51 80.55 A 2.05 2.03 -10.6 0 0 468.75 78.76 L 469.46 59.50 Q 469.03 62.00 470.73 61.97 Q 472.54 61.95 472.63 61.96 Q 477.22 62.66 481.84 63.00 Q 482.82 63.08 487.69 63.95 Q 490.65 64.48 493.71 64.00 L 492.96 78.95 Q 492.87 80.76 494.64 81.06 Q 502.30 82.38 509.00 81.80 A 1.51 1.35 17.7 0 0 509.87 81.41 Q 511.72 79.54 511.69 76.75 Q 511.63 70.71 512.25 64.71 Q 512.75 63.76 514.31 63.81 Q 527.41 64.23 534.50 65.50 Q 537.28 66.00 538.54 65.50 Q 539.34 67.51 540.26 69.46 Q 546.26 82.33 560.00 81.75 Q 576.26 81.07 582.16 80.96 Q 584.79 80.91 586.41 79.80 Q 589.26 77.87 591.00 74.71 Q 592.64 74.80 594.22 75.24 Q 595.84 75.69 597.36 75.74 Q 600.36 75.85 603.18 76.86 Q 604.95 77.49 606.43 77.72 Q 608.11 77.98 609.76 78.38 A 1.76 1.75 -47.2 0 0 610.73 78.34 L 612.54 77.75 Q 619.72 81.20 627.58 82.24 Q 629.76 82.53 632.42 82.27 Q 634.83 82.04 637.25 81.79 Q 636.70 82.99 637.73 83.25 Q 638.51 83.44 638.61 83.48 Q 641.37 84.59 642.50 84.75 Q 658.06 86.94 673.69 88.51 A 1.28 1.00 69.6 0 1 674.47 88.99 Q 674.70 89.30 675.00 89.56 Q 675.00 91.78 675.00 94.00 Q 377.84 94.00 80.69 94.00 Q 80.17 93.47 79.54 93.55 A 1.43 0.59 -15.8 0 1 78.62 93.44 Q 77.72 92.83 79.06 92.48 Q 100.35 86.81 122.02 82.87 Q 124.88 82.36 127.08 80.96 A 1.55 1.48 28.5 0 1 127.97 80.72 Q 130.19 80.80 129.25 80.04 L 140.72 79.78 Q 142.78 79.74 142.78 77.44 L 142.77 65.31 A 0.90 0.79 -15.2 0 1 143.26 64.57 Q 147.47 62.44 153.32 65.13 A 4.69 3.46 3.9 0 1 155.25 66.77 L 161.70 77.61 A 1.93 1.20 77.2 0 0 162.38 78.30 Q 168.28 81.44 174.71 79.35 A 1.45 1.10 0.3 0 0 175.47 78.78 L 178.73 72.89 A 1.51 1.07 61.3 0 0 178.84 71.95 L 178.21 69.00 Q 179.73 67.15 182.25 67.23 Q 184.07 67.28 184.71 65.75 Q 186.03 72.29 191.06 74.69 Q 194.09 76.13 201.29 78.13 Q 207.46 79.83 211.88 79.68 Q 220.34 79.38 227.06 75.31 Q 236.67 69.49 235.71 57.25 Q 239.20 56.48 242.71 57.00 L 243.26 78.80 A 1.67 1.62 1.8 0 0 244.78 80.37 Q 253.13 81.11 260.02 80.50 A 1.92 1.90 -90.0 0 0 261.75 78.76 Q 263.30 60.31 263.56 41.81 A 0.36 0.36 -79.9 0 1 264.04 41.47 Q 266.34 42.29 268.25 44.75 Q 273.60 51.65 277.57 59.44 Q 279.55 63.33 279.07 67.76 Q 278.52 72.88 277.96 78.38 A 1.40 1.39 -81.2 0 0 279.05 79.88 Q 286.08 81.40 291.86 81.48 Q 295.24 81.53 296.52 78.41 Q 300.86 67.85 301.14 56.50 Q 301.36 47.88 301.29 39.25 Z"/>
<ellipse fill="rgb(48,33,16)" fill-opacity="1.000" cx="0" cy="0" rx="2.90" ry="0.76" transform="translate(563.07,57.56) rotate(53.3)"/>
<path fill="rgb(71,51,29)" fill-opacity="1.000" d="M 129.73 71.22 Q 127.83 69.12 130.42 67.96 Q 131.31 67.56 133.15 67.30 Q 135.79 66.93 138.44 66.62 A 0.63 0.62 -12.5 0 1 139.11 67.04 Q 140.20 70.17 139.76 73.44 A 0.62 0.61 1.1 0 1 139.19 73.98 Q 135.67 74.23 132.43 72.97 Q 130.72 72.31 129.73 71.22 Z"/>
<path fill="rgb(71,51,29)" fill-opacity="1.000" d="M 26.04 74.71 Q 26.30 75.35 25.55 75.23 Q 21.63 74.59 17.91 73.81 Q 16.15 73.43 15.54 72.42 Q 14.68 71.00 15.56 69.26 A 1.03 0.98 8.3 0 1 16.31 68.73 Q 18.21 68.44 20.12 68.31 Q 20.26 68.30 21.84 68.04 Q 24.13 67.68 24.30 70.19 Q 24.32 70.47 24.58 71.11 L 26.04 74.71 Z"/>
</svg>